<?xml version="1.0" encoding="UTF-8" standalone="no"?>
<!-- Generator: Adobe Illustrator 28.2.0, SVG Export Plug-In . SVG Version: 6.00 Build 0)  -->

<svg
   version="1.1"
   id="Layer_1"
   x="0px"
   y="0px"
   viewBox="0 0 149.99999 150"
   xml:space="preserve"
   width="150"
   height="150"
   xmlns="http://www.w3.org/2000/svg"
   xmlns:svg="http://www.w3.org/2000/svg"><defs
   id="defs10" />
<style
   type="text/css"
   id="style1">
	.st0{fill:#006EAB;}
	.st1{fill:#4C96CB;}
</style>


<g
   id="g10"
   transform="translate(-133.27776,-341.51245)">
	<path
   class="st0"
   d="m 234.8,395.61 -8.6,6.32 h -31.43 l 0.9,-3.89 3.4,-2.43 H 177.2 l -5.1,3.73 -14.83,64.06 h 71.53 l 20.52,-16.74 5.19,-22.36 -12.26,-15.94 9.02,-7.32 1.25,-5.45 H 234.8 Z m -6.66,42.33 -8.77,7.02 h -34.6 l 5.84,-25.48 h 35.32 l 4.93,6.29 z"
   id="path10" />
	<polygon
   class="st0"
   points="232.95,365.89 170.97,365.89 165.23,390.73 161.37,393.59 179.94,393.59 186.98,388.37 188.38,382.32 220.69,382.32 225.28,388.51 224.79,390.72 220.93,393.59 237.61,393.59 244.64,388.37 245.95,382.73 "
   id="polygon10" />
</g>
</svg>
