<?xml version="1.0" encoding="UTF-8" standalone="no"?>
<svg
   version="1.1"
   id="Layer_1"
   x="0px"
   y="0px"
   viewBox="0 0 149.99999 150"
   xml:space="preserve"
   xmlns="http://www.w3.org/2000/svg"
   xmlns:svg="http://www.w3.org/2000/svg"><defs id="defs10" />
<style type="text/css" id="style1">
	.st0{fill:#006EAB;}
	.st1{fill:#4C96CB;}
</style>
<path class="st0" d="m 136.60224,54.756265 -5.42,4 h -25.81 l 5.48,-4 z m -96.080005,0 -5.6,4 h 25.1 l 5.6,-4 z m 90.660005,4 -12.07,9.8 11.83,15.380003 -5.33,22.930002 -20.86,17.01 H 19.832235 l 15.07,-65.130005 h 25.1 l -0.52,2.26 h 43.130005 l 2.76,-2.26 h 25.81 z m -25.83,27.110003 -4.29,-5.47 H 54.902235 l -5.33,23.230002 h 45.120003 l 8.140002,-6.509998 z m -72.280005,-64.530003 -5.88,25.43 h 25.1 l 1.2,-5.16 h 41.870003 l 3.4,4.59 -0.13,0.57 h 23.230002 l 1.67,-7.23 -14.05,-18.2 z m -5.88,25.42 -8.09,6 h 25.1 l 8.09,-6 z m 94.670005,0 H 98.632238 l -7.97,5.93 -0.12,0.07 h 23.240002 z" id="path1" />
</svg>
